name 900006_13ik_lsw.mot
datacolumns 165
datarows 4
range 0.56666667 0.59166667
cursor 1.0 1.0 0.0
keys m_key
wrap
enforce_loops no
enforce_constraints no
calc_derivatives 0.008333
event_color 1.000000 0.000000 1.000000
endheader

                time	          calcn_r_tx	          calcn_r_ty	          calcn_r_tz	          calcn_r_r1	          calcn_r_r2	          calcn_r_r3	          calcn_l_tx	          calcn_l_ty	          calcn_l_tz	          calcn_l_r1	          calcn_l_r2	          calcn_l_r3	           pelvis_tz	           pelvis_tx	           pelvis_ty	         pelvis_tilt	         pelvis_list	     pelvis_rotation	       hip_flexion_r	     hip_adduction_r	      hip_rotation_r	        knee_angle_r	       ankle_angle_r	    subtalar_angle_r	         mtp_angle_r	       hip_flexion_l	     hip_adduction_l	      hip_rotation_l	        knee_angle_l	       ankle_angle_l	    subtalar_angle_l	         mtp_angle_l	    lumbar_extension	      lumbar_bending	     lumbar_rotation	     ground_force_px	     ground_force_py	     ground_force_pz	     ground_force_vx	     ground_force_vy	     ground_force_vz	     ground_force_px	     ground_force_py	     ground_force_pz	     ground_force_vx	     ground_force_vy	     ground_force_vz	     ground_torque_x	     ground_torque_y	     ground_torque_z	     ground_torque_x	     ground_torque_y	     ground_torque_z	           midhip_px	           midhip_py	           midhip_pz	            hip_r_px	            hip_r_py	            hip_r_pz	            hip_l_px	            hip_l_py	            hip_l_pz	           knee_r_px	           knee_r_py	           knee_r_pz	           knee_l_px	           knee_l_py	           knee_l_pz	          ankle_r_px	          ankle_r_py	          ankle_r_pz	          ankle_l_px	          ankle_l_py	          ankle_l_pz	          midasis_px	          midasis_py	          midasis_pz	           asis_r_px	           asis_r_py	           asis_r_pz	           asis_l_px	           asis_l_py	           asis_l_pz	           psis_r_px	           psis_r_py	           psis_r_pz	           psis_l_px	           psis_l_py	           psis_l_pz	     epicondLat_r_px	     epicondLat_r_py	     epicondLat_r_pz	     epicondLat_l_px	     epicondLat_l_py	     epicondLat_l_pz	     epicondMed_r_px	     epicondMed_r_py	     epicondMed_r_pz	     epicondMed_l_px	     epicondMed_l_py	     epicondMed_l_pz	   malleolusLat_r_px	   malleolusLat_r_py	   malleolusLat_r_pz	   malleolusLat_l_px	   malleolusLat_l_py	   malleolusLat_l_pz	  malleolusMedv_r_px	  malleolusMedv_r_py	  malleolusMedv_r_pz	  malleolusMedv_l_px	  malleolusMedv_l_py	  malleolusMedv_l_pz	     sternalnotch_px	     sternalnotch_py	     sternalnotch_pz	   xyphoidprocess_px	   xyphoidprocess_py	   xyphoidprocess_pz	             neck_px	             neck_py	             neck_pz	            toe_r_px	            toe_r_py	            toe_r_pz	            toe_l_px	            toe_l_py	            toe_l_pz	      thighwand_r_px	      thighwand_r_py	      thighwand_r_pz	      thighwand_l_px	      thighwand_l_py	      thighwand_l_pz	      upperleg1_r_px	      upperleg1_r_py	      upperleg1_r_pz	      upperleg1_l_px	      upperleg1_l_py	      upperleg1_l_pz	      upperleg2_r_px	      upperleg2_r_py	      upperleg2_r_pz	      upperleg2_l_px	      upperleg2_l_py	      upperleg2_l_pz	      shankwand_r_px	      shankwand_r_py	      shankwand_r_pz	      shankwand_l_px	      shankwand_l_py	      shankwand_l_pz	      lowerleg1_r_px	      lowerleg1_r_py	      lowerleg1_r_pz	      lowerleg1_l_px	      lowerleg1_l_py	      lowerleg1_l_pz	    subclavicle_r_px	    subclavicle_r_py	    subclavicle_r_pz	    subclavicle_l_px	    subclavicle_l_py	    subclavicle_l_pz	
          0.56666667	          1.96074268	          0.03599965	         -0.22627203	          2.86662292	          1.31578660	          1.87478327	          1.46248386	          0.10384618	         -0.32010253	         -3.41599697	          1.66702469	        -26.79322729	         -0.29098167	          1.87845147	          0.80650934	          3.14899796	         -1.32096652	          1.68807707	         22.28257755	          2.94949424	         -2.71372072	        -18.59751440	         -4.91742344	          0.00000000	          0.00000000	        -16.02323620	          2.41831698	         -1.78062992	        -24.68906622	         10.93802567	          0.00000000	          0.00000000	         -8.01770847	          4.60853848	         -3.36272809	          2.00184460	          0.00000000	         -0.23301195	        -60.13783042	        309.00388226	          5.47056679	          1.61746069	          0.00000000	         -0.30847119	         53.73534431	        251.28851607	         -9.22045344	          0.00000000	         -0.14255584	          0.00000000	          0.00000000	          0.10130265	          0.00000000	          1.84217862	          0.74378005	         -0.29246646	          1.83635971	          0.74246086	         -0.23534992	          1.84799788	          0.74509968	         -0.34958311	          1.93022697	          0.40805960	         -0.22558491	          1.71819010	          0.41838931	         -0.33230742	          2.01034271	          0.06608203	         -0.23441102	          1.51657045	          0.11047606	         -0.32609915	          1.87480109	          0.81774203	         -0.28797673	          1.87866032	          0.82177898	         -0.17793642	          1.87094180	          0.81370548	         -0.39801737	          1.69668959	          0.84388582	         -0.24091742	          1.70029960	          0.84143850	         -0.29557822	          1.96451893	          0.41860477	         -0.16612355	          1.72697509	          0.39529616	         -0.39045844	          1.93803339	          0.41330182	         -0.28711807	          1.74247011	          0.40773990	         -0.26935152	          2.00564954	          0.06421980	         -0.19725660	          1.51258567	          0.11237385	         -0.36233288	          2.01303279	          0.06130429	         -0.26769704	          1.51082731	          0.11657550	         -0.29305728	          1.86299626	          1.16372751	         -0.28350420	          1.86722496	          1.06183419	         -0.28999439	          1.75979814	          1.23732484	         -0.27821589	          2.09318961	          0.05332233	         -0.22563626	          1.58569596	          0.05428856	         -0.32171274	          2.02122150	          0.59028812	         -0.19839685	          1.87527179	          0.52482387	         -0.41487812	          1.96163415	          0.60518128	         -0.15770935	          1.86684395	          0.57401604	         -0.34894947	          1.97080396	          0.54746505	         -0.16490113	          1.84572769	          0.52069644	         -0.33832277	          2.10858991	          0.20248987	         -0.20799233	          1.57468898	          0.18913956	         -0.45446362	          2.03653488	          0.17483394	         -0.22494755	          1.56547652	          0.18777798	         -0.37589942	          1.86423792	          1.16161216	         -0.22713262	          1.86726559	          1.16588678	         -0.33355439	
          0.57500000	          1.96135436	          0.03648828	         -0.22599754	          2.82203892	          1.72514728	          0.83446287	          1.46915350	          0.11257614	         -0.32133011	         -3.70940345	          1.41085745	        -30.60294457	         -0.29070765	          1.88857594	          0.80773521	          3.37966507	         -1.74966944	          1.51524087	         21.61936850	          3.56472178	         -2.27813209	        -19.20663199	         -4.89556564	          0.00000000	          0.00000000	        -15.44802105	          2.08619521	         -1.36292860	        -27.12284145	          8.71996819	          0.00000000	          0.00000000	         -8.18073125	          4.83552914	         -3.29642744	          2.00529651	          0.00000000	         -0.23309894	        -62.75928079	        328.33976546	          4.97211793	          1.61898450	          0.00000000	         -0.30740121	         46.25651595	        200.58079930	         -9.83343424	          0.00000000	         -0.23676450	          0.00000000	          0.00000000	          0.13556691	          0.00000000	          1.85251345	          0.74492281	         -0.29150882	          1.84653971	          0.74379330	         -0.23440447	          1.85848761	          0.74605254	         -0.34861343	          1.93787756	          0.40958447	         -0.22595334	          1.73466225	          0.41709281	         -0.33241102	          2.01155263	          0.06592455	         -0.23469485	          1.52348362	          0.11598578	         -0.32667448	          1.88482653	          0.81893313	         -0.28721785	          1.88836972	          0.82334534	         -0.17716548	          1.88128331	          0.81452147	         -0.39727067	          1.70643936	          0.84469550	         -0.24134480	          1.71071366	          0.84194259	         -0.29602653	          1.97225855	          0.41927420	         -0.16646965	          1.74208712	          0.39446237	         -0.39062765	          1.94519835	          0.41422247	         -0.28636693	          1.75825710	          0.40706818	         -0.26848182	          2.00723310	          0.06419386	         -0.19748826	          1.51955540	          0.11804723	         -0.36290566	          2.01377802	          0.06107575	         -0.26801374	          1.51765767	          0.12223036	         -0.29362543	          1.87316728	          1.16494049	         -0.28210237	          1.87740937	          1.06305242	         -0.28866825	          1.76987151	          1.23859098	         -0.27690725	          2.09408052	          0.05173740	         -0.22626820	          1.58933313	          0.05511834	         -0.32169642	          2.03039691	          0.59063072	         -0.19909717	          1.88957354	          0.52597077	         -0.41372215	          1.97152900	          0.60666075	         -0.15833367	          1.87998241	          0.57537356	         -0.34760756	          1.98008901	          0.54886367	         -0.16522187	          1.85977836	          0.52175050	         -0.33705155	          2.11251777	          0.20063949	         -0.20954264	          1.58378030	          0.19322366	         -0.45484722	          2.03970314	          0.17430752	         -0.22571917	          1.57428142	          0.19202705	         -0.37627899	          1.87429855	          1.16277566	         -0.22564719	          1.87753492	          1.16714426	         -0.33222582	
          0.58333333	          1.96234887	          0.03673879	         -0.22611683	          2.88606923	          2.10940938	          0.10075963	          1.47729198	          0.12163872	         -0.32289173	         -3.78838107	          1.29195022	        -34.52923988	         -0.28912591	          1.89877353	          0.80920046	          3.56681541	         -1.99196220	          1.32512570	         20.86973275	          4.12492063	         -1.79031176	        -19.54459246	         -4.71316728	          0.00000000	          0.00000000	        -14.74939734	          1.80639714	         -1.02950127	        -29.52936458	          6.27459567	          0.00000000	          0.00000000	         -8.37167479	          5.06989760	         -3.20233032	          2.00827198	          0.00000000	         -0.23309866	        -64.23880031	        349.26891567	          3.34307800	          1.62038159	          0.00000000	         -0.30660303	         37.19849533	        147.83349664	         -9.06820181	          0.00000000	         -0.26971559	          0.00000000	          0.00000000	          0.13707369	          0.00000000	          1.86276987	          0.74627591	         -0.29047601	          1.85662162	          0.74533735	         -0.23338687	          1.86891858	          0.74721450	         -0.34756550	          1.94525946	          0.41086207	         -0.22615358	          1.75209289	          0.41561119	         -0.33263803	          2.01242585	          0.06583045	         -0.23494203	          1.53145892	          0.12167794	         -0.32718663	          1.89475709	          0.82032566	         -0.28638191	          1.89794768	          0.82511119	         -0.17632531	          1.89156647	          0.81554077	         -0.39643900	          1.71620396	          0.84566136	         -0.24190225	          1.72107525	          0.84267377	         -0.29649902	          1.97930274	          0.41987898	         -0.16665487	          1.75781998	          0.39369596	         -0.39089086	          1.95209949	          0.41476504	         -0.28517735	          1.77507830	          0.40597468	         -0.26805550	          2.00845801	          0.06419922	         -0.19768986	          1.52753433	          0.12392681	         -0.36340697	          2.01427800	          0.06087293	         -0.26828091	          1.52570118	          0.12793936	         -0.29412058	          1.88338317	          1.16631009	         -0.28070571	          1.88760910	          1.06442514	         -0.28733243	          1.77996988	          1.24007288	         -0.27560491	          2.09465981	          0.05058384	         -0.22680673	          1.59349762	          0.05597958	         -0.32168771	          2.03911726	          0.59080539	         -0.19970000	          1.90422993	          0.52739779	         -0.41265738	          1.98089816	          0.60789455	         -0.15886815	          1.89335980	          0.57697661	         -0.34632593	          1.98890149	          0.55020613	         -0.16533191	          1.87429560	          0.52291178	         -0.33595893	          2.11590061	          0.19898727	         -0.21092816	          1.59371834	          0.19763790	         -0.45517932	          2.04234676	          0.17380622	         -0.22644566	          1.58419914	          0.19650951	         -0.37652425	          1.88440871	          1.16410510	         -0.22419351	          1.88784497	          1.16854834	         -0.33087616	
          0.59166667	          1.96350099	          0.03700552	         -0.22542472	          2.77386503	          2.36069545	         -0.50230157	          1.48686344	          0.13066453	         -0.32371384	         -3.92502641	          1.38638869	        -38.28990546	         -0.28897277	          1.90845224	          0.81083971	          3.75991822	         -2.10009253	          1.08793664	         20.12794056	          4.36055482	         -1.24742490	        -19.84214748	         -4.47785063	          0.00000000	          0.00000000	        -13.92836734	          1.82213303	         -0.90670641	        -31.93615391	          3.86353423	          0.00000000	          0.00000000	         -8.57939299	          5.31313986	         -3.06815665	          2.01054005	          0.00000000	         -0.23298013	        -64.04465282	        371.02523433	          1.11488104	          1.62194422	          0.00000000	         -0.30611700	         26.68979257	         97.20312464	         -7.27302707	          0.00000000	         -0.27462409	          0.00000000	          0.00000000	          0.10741379	          0.00000000	          1.87288344	          0.74779134	         -0.28940490	          1.86654173	          0.74703017	         -0.23233430	          1.87922559	          0.74855238	         -0.34647589	          1.95225685	          0.41185260	         -0.22613249	          1.77021614	          0.41405128	         -0.33296506	          2.01298267	          0.06576819	         -0.23514221	          1.54053879	          0.12744282	         -0.32762624	          1.90457106	          0.82186488	         -0.28548139	          1.90737833	          0.82699548	         -0.17542107	          1.90176373	          0.81673496	         -0.39554216	          1.72597721	          0.84678590	         -0.24254476	          1.73136092	          0.84363267	         -0.29695833	          1.98559553	          0.42037071	         -0.16663574	          1.77410470	          0.39301764	         -0.39122109	          1.95866328	          0.41496388	         -0.28363052	          1.79280903	          0.40450608	         -0.26814605	          2.00930995	          0.06420045	         -0.19785419	          1.53656649	          0.12990775	         -0.36382685	          2.01457794	          0.06067976	         -0.26848647	          1.53503842	          0.13359476	         -0.29453491	          1.89362626	          1.16779712	         -0.27935207	          1.89780795	          1.06591441	         -0.28604338	          1.79008460	          1.24172063	         -0.27431579	          2.09498509	          0.04976332	         -0.22720328	          1.59831743	          0.05693682	         -0.32172816	          2.04735013	          0.59076859	         -0.20010473	          1.91911021	          0.52908430	         -0.41176977	          1.98964684	          0.60880098	         -0.15919882	          1.90696708	          0.57875729	         -0.34525243	          1.99714005	          0.55137790	         -0.16516926	          1.88922004	          0.52411945	         -0.33518201	          2.11876646	          0.19748842	         -0.21201610	          1.60454387	          0.20232461	         -0.45545050	          2.04452729	          0.17328644	         -0.22703850	          1.59528471	          0.20112726	         -0.37666250	          1.89455745	          1.16555251	         -0.22284203	          1.89817198	          1.17006763	         -0.32951124	
